<?xml version="1.0" encoding="UTF-8"?>
<svg version="1.1" viewBox="0 0 2048 646" width="1280" height="1280" xmlns="http://www.w3.org/2000/svg">
<path transform="translate(0)" d="m0 0h2048v646h-2048z" fill="#FEFEFE"/>
<path transform="translate(335,13)" d="m0 0h607v611h-608v-610z" fill="#293477"/>
<path transform="translate(652,90)" d="m0 0h1l1 8 9-2 7-4 2 1-3 9-5 4 3 3-1 4-2 1h-8l-3-1v15l3 9 4 5 8 5h7l2-3-1-8-5-12v-8l4-3 12-1 20 4 20 8 21 11 27 18 21 16 16 13 7 7v5l-6 1-11-4-8-7-7-7-8-7-6-4v2l4 2 15 15 3 5h-15l-14-3-12-5-14-7 8 8 3 8-1 7-6-1h-9l-7 3-4 2-2 4-6 7 5 5 18 12 3 4-1 179 14-7 13-9-7-3-4-5-1-2v-10l6-9 6-7 1-2h2l8 17v11l7-5 6-10 5-12 3-12-3 1h-9l-5-3-8-14v-2l15-1 8 3 3 4 1-7v-12l-6 5-8 1-8-3-5-4-4-9-5-19 21 3 8 3 6 6-1-12-2-7-3 1-2 5-4 1-5-5v-4h-2l1-5 2-2h4v5l1-4 1-1h5l-1-6-4 3h-7l-6-4-3-8-1-8 14 2 5 3-3-16-4-10 1-7 6-7 6-5 1-2h2l5 13v10l-4 6-6 3h-3l5 16 5-10 8-6 19-8 3-1v24l-4 11-7 6-5 2h-9l-5-3 5 17 1 5 5-8 7-4 3-1 16-1 5-1-2 6-6 16-5 6-9 3-9-2-3-2v41l-2 19 15-4-6-4-4-8v-10l3-6 9-8 9-5 5-4h2l2 16 1 4v8l-3 8-1 2 15-10 5-3-5-5-1-7 7-8 4-4 4 10v7l-6 8 9 2 8 7 6 6v2l-15 5h-7l-5-3-4-5v-4l-11 8-12 7-7 2 3 2 8 6 8 12 3 3-7 2-11 3h-9l-8-5-4-6-1-7-13 10-10 9 3 3v2h2l1-4 7 1 3 3 1 6-2 3h-2l-1 7-6 5h-6l-3-3-1-6-4-1-4-5-15 12-3 2 9 6 10 11 2 1v2l-13 4-5 2h-10l-6-4-4-5-1-9h-2l-3 10-6 11-11 16-12 13-16 11-11 5-17 5-6 1h-30l-14-3-14-5-13-7-11-9-9-9-9-12-9-14-8 3-4 1-3-1-5 1-9-3-4-5 1-4 3-5 4-2 3-3 6-2-3-3-9-7-5-4v6l-2 2-4-1-3-4-1-5 5-3-8-7-10-9-5-4-8 4-3 4-12 4h-9l-10-4-5-6 5-8 5-3 3-3 7-2 2-1-16-7-12-9-3-2-6 3h-2v2l-8 2-12-1-8-4-3-4 1-4 4-5 5-2 5-1 8-1h2l-3-12 2-8 3-3 5 1 6 7 2 5v8l-2 8 9 7 12 7v-2l-6-4-2-7-2-3-1-14 1-1 2-10 5-5 4-1 7 3 4 7 4 3 2 8 1 1v9l1 5-3 5-1 7-3 3 15 5-2-8-2-17v-29l1-11-4 1-2-1v-4l-6 1-6-5-1-7 1-1h5l9 7 4-1 2 1 4-16v-3h-8l-2-2-10-1-4-5-8-4-3-7-5-5 1-4-4-7 1-5 2-8 8-1 3-1 10 5 4 1 4 5 5 2 6 10 2 1 1 11 1 3h2l2-9 3-10-5-2-5-5-4-8v-11l2-7 3-4 7 1 7 8 3 7v11l-3 8-2 5v5l6-4 2-3 7-2 4-1h9l5 3v9l-4 4-2 4-9 6-5 1-4 1h-8l-5-3-2 12-3 15 4-2 4-6 6-2 5-4h6l5-2 4 1 8 3v11l-4 5-2 7-6 4-2 4-9 3-3 3h-10l-5 1-3-1v10l2 14 2-6 5-5 4-2 4-3 11-1 5 2v9l-2 2-2 5-5 5-8 4-13 1 6 18 6 11 8 7-2-5-1-4v-10l2-2 1-7 7-7 8 4 5 7 2 1 2 9 1 5v9l-3 4-2 7-3 1 5 5 9 6h1l-1-6-1-170 5-5 11-8 11-7-1-4-7-11-3-8-2-10-1-2h-11l2-4-16 9-11 4-11 2h-14l2-4 16-17v-1l-10 9-12 11-8 5-7 2h-5l-2-4 7-8 10-9 16-12 13-10 15-10 13-8 23-12 19-7 17-3 11 1 4 2 1 2v7l-6 14v9l9 1h2l9-9 3-10v-13l-2-2-8-2 4-3v-2l-7-1h-6l1-3 5-2h10l4-3 14-1 5-3z" fill="#FDFDFD"/>
<path transform="translate(1940,13)" d="m0 0h83v611l-14 1-69-1z" fill="#293477"/>
<path transform="translate(565,224)" d="m0 0 13 3h122l12-3 15 10 4 3v161l-2 18-2 7-12-1-10-3-14-14-17-10-6-7-6-11h-6l-6 3-10-5-8-1-12 3-10 5-14 11-9 9-9 7-16 12-7 2-7-8-2-15v-163l10-7z" fill="#293477"/>
<path transform="translate(1052,225)" d="m0 0h35l6 9 13 26 9 17 13 29 2 4 5-10 8-18 12-25 14-27 5-5h34l2 1 1 3v150l-2 6h-31l-2-1-1-3v-52l2-48-7 15-13 28-12 24-4 2h-23l-4-4-11-21-15-33-4-10h-1l1 22v80l-1 1h-32l-2-2v-155z" fill="#293477"/>
<path transform="translate(1099,409)" d="m0 0h20l20 4 14 5 9 5 2 2-1 5-14 20-2 2-6-1-9-4-14-3h-17l-9 3-5 4-5 9-1 8v46l2 11 5 8 8 5 4 1h19l12-4h2v-26l-26-1-1-2v-26l1-1h60l1 2v68l-4 5-11 8-14 7-13 4-14 2-16-1-16-4-12-6-9-7-6-8-6-12-3-15v-61l3-14 5-12 9-10 7-6 12-6 12-3z" fill="#293477"/>
<path transform="translate(1617,452)" d="m0 0h17l14 3 14 7 8 8 7 14 2 11v37l-4 16-6 9-4 5-11 7-12 4-6 1h-21l-15-4-11-6-8-8-6-12-2-7-1-10v-19l1-17 4-13 6-10 8-7 12-6z" fill="#293477"/>
<path transform="translate(1297,452)" d="m0 0h17l14 3 14 7 8 8 5 8 3 9 1 8v37l-3 14-5 9-6 7-11 7-12 4-6 1h-20l-16-4-12-7-7-7-6-12-2-8-1-13 1-32 4-13 6-10 8-7 12-6z" fill="#293477"/>
<path transform="translate(1447,266)" d="m0 0h24l12 3 13 7 7 7 7 13 2 10v43l-3 11-5 9-6 7-14 8-12 3-7 1h-13l-18-4-11-6-9-9-6-12-2-11v-37l2-11 5-12 8-9 12-7z" fill="#293477"/>
<path transform="translate(1264,266)" d="m0 0h24l11 3 10 5 5 5 6 8 4 10 2 13v69l-4 3-18 4-16 2h-21l-16-3-14-7-5-4-6-10-2-8v-12l3-10 6-8 9-6 12-4 5-1h32l-1-10-4-6-4-2-13-1-16 3-8 3-5-1-9-16-1-6 3-3 13-6z" fill="#293477"/>
<path transform="translate(612,426)" d="m0 0h52l34 3 25 4 1 2-8 15-10 13-11 11-11 7-12 6-15 4-9 1h-18l-14-2-13-4-15-8-11-9-10-11-9-14-5-10 13-3 22-3z" fill="#293477"/>
<path transform="translate(1407,452)" d="m0 0h20l17 4 12 5 3 3-1 6-11 17-9-2-16-4h-9l-8 3-1 7 4 4 29 7 14 7 6 5 4 6 3 9v12l-2 9-5 9-8 7-11 5-12 3h-23l-16-4-12-5-9-6-1-3 5-10 7-11 3-1 15 7 12 3h12l7-3 3-4-2-5-6-3-27-7-11-6-6-5-6-10-2-9v-8l2-9 5-8 9-8 12-5z" fill="#293477"/>
<path transform="translate(1510,452)" d="m0 0h20l16 4 12 5 4 3-2 6-9 15-2 2-9-2-9-3-6-1h-10l-8 3-1 7 5 4 29 7 14 7 7 7 4 8 1 3v17l-5 13-8 8-12 6-13 3h-23l-16-4-11-5-9-5-1-6 9-16 4-4 6 2 8 4 9 3 6 1h12l8-4 1-6-3-3-8-3-20-5-10-4-8-6-6-7-4-10v-16l4-10 7-8 9-5 12-4z" fill="#293477"/>
<path transform="translate(1082,61)" d="m0 0h18l18 4 14 7 2 3-7 11-6 8-7-1-11-4-16-1-9 3-6 7-2 7v38l2 9 5 6 8 3h13l12-3v-20h-18l-3-2v-20l1-1h46l1 3v49l-2 5-11 8-11 5-11 3-13 1-15-2-12-5-8-6-6-7-4-8-3-14v-43l3-16 5-9 6-7 11-7z" fill="#293477"/>
<path transform="translate(1736,63)" d="m0 0h23l2 3v113l-1 3-13 4-10 2-16 1-13-2-9-4-8-6-6-8-3-8-1-6v-27l2-10 5-10 7-7 10-5 14-2 12 2 3 1v-31z" fill="#293477"/>
<path transform="translate(633,146)" d="m0 0 5 4 2 4v9l-5 8-1 3 6-1 5-5 1 1v8l-1 2 17-8 5-1h20l5 1v2l-5 3-2 6h10l8-4 5-5 1-3 3 1 1 4v7l-3 6 6-3 11-1 11 4 4 4v2l-12 2-7 5-7 8-7 6-6 2-7 1h-116l-9-2-7-6-8-12-2-7 10 3 3-3-1-6-7-6-5-2-10-1 4-4 2-1h12l9 5 12 11 2 1h8l2-1v-7l-4-6-4-4h8l9 2 8 5 6 5-2-7v-13l5-6 5-1v6l5-1 2-2z" fill="#293477"/>
<path transform="translate(1180,94)" d="m0 0h12l14 3 9 5 7 7 4 8 2 11v26l-2 11-4 8-5 6-10 6-10 3h-20l-13-4-8-6-6-7-4-12v-35l4-12 6-8 9-6 9-3z" fill="#293477"/>
<path transform="translate(1585,94)" d="m0 0h12l13 3 10 6 7 8 4 10 1 10v22l-2 12-4 8-5 6-10 6-10 3h-19l-11-3-9-5-8-9-4-13v-33l4-13 6-8 9-6 9-3z" fill="#293477"/>
<path transform="translate(1342,241)" d="m0 0h28l2 5 2 25h22l2 1v26l-2 2-21 1v41l3 10 6 4 16 1 1 1v25l-4 4-15 1-14-2-10-4-10-9-6-12-2-10v-108z" fill="#293477"/>
<path transform="translate(461,400)" d="m0 0h3l10 16 12 16 11 13 9 10 16 14 15 11 14 8 4 3-2 4-4 5-1 4-6 11 6 2 4 3-8 10-9 10-2 3-18 5h-2l2-16 3-5 14-13-5 4-5-2-18-12-16-13-15-14-9-10-13-17-8-13-4-7 1-4 11-13 8-10z" fill="#FCFCFD"/>
<path transform="translate(560,486)" d="m0 0 21 9 19 6 22 4h33l20-3 23-7 18-8h4l10 17 5 8-1 3-21 9-23 7-24 5-20 2h-12l-21-2-24-5-23-7-20-8-2-4 10-17z" fill="#FEFEFE"/>
<path transform="translate(1811,94)" d="m0 0h12l13 3 9 6 6 7 4 11 1 6v21l-1 2h-51l2 9 4 5 3 1h14l13-5 5 1 9 12-1 4-9 6-11 4-5 1h-19l-13-4-10-7-6-9-3-13v-26l3-14 6-10 10-7 9-3z" fill="#293477"/>
<path transform="translate(1349,94)" d="m0 0h12l13 3 10 6 6 8 4 12v26l-1 1-50 1 1 8 5 5 2 1h14l14-5 5 1 9 13-1 3-14 8-12 3h-19l-13-4-9-7-5-6-4-11v-38l4-11 9-10 11-5z" fill="#293477"/>
<path transform="translate(1492,94)" d="m0 0h14l11 2 10 5 6 5 5 8 3 10v62h-25l-1-1-1-55-3-8-5-3h-15l-2 1-1 65-1 1h-24l-1-2v-82l10-4z" fill="#293477"/>
<path transform="translate(1216,452)" d="m0 0h20l13 2 2 1 1 3v21l-1 3-26 1-8 1v66l-1 20-1 1h-31l-2-4v-99l2-6 10-5 15-4z" fill="#293477"/>
<path transform="translate(816,401)" d="m0 0 5 4 11 14 7 8-1 5-9 15-9 12-12 14-14 14-11 9-13 10-12 8-4 3-4-1-14-13-10-8-2-4 20-11 17-13 13-12 10-10 11-14 10-13z" fill="#FEFEFE"/>
<path transform="translate(1228,97)" d="m0 0h25l3 6 15 54 2-4 13-47 4-9h26l-1 8-14 40-14 39-1 2-4 1h-19l-7-2-13-37-15-43-1-7z" fill="#293477"/>
<path transform="translate(618,256)" d="m0 0h75l-1 8-10 34-2 1h-78l1-5 14-36z" fill="#FEFEFE"/>
<path transform="translate(1429,94)" d="m0 0h15l11 2 2 3v10l-1 8-5 1h-12l-9 1-1 67h-25l-1-2v-81l4-3 16-5z" fill="#293477"/>
<path transform="translate(628,379)" d="m0 0h10l10 5 6-1 3-2h3l6 12 5 5 15 9 7 6 3 4v2l-28-2h-60l-35 3 5-5 14-12 8-7 14-11 10-5z" fill="#293477"/>
<path transform="translate(1619,483)" d="m0 0h14l8 5 3 7v37l-3 6-5 4-5 2h-10l-8-3-4-5-2-9v-28l3-9 5-5z" fill="#FEFEFE"/>
<path transform="translate(1455,296)" d="m0 0h8l8 3 5 6 2 7v29l-2 8-5 6-9 3-10-1-6-3-4-6-1-3v-36l4-8 6-4z" fill="#FEFEFE"/>
<path transform="translate(1299,483)" d="m0 0h14l8 5 3 7v36l-3 7-3 3-7 3h-10l-7-3-4-4-2-4-1-7v-27l3-9 5-5z" fill="#FEFEFE"/>
<path transform="translate(617,239)" d="m0 0h2l3 9v4l-5 2-12 31-7 18-1 1 5 2 5 13v2l-7 6h-6l-7-4-2-1 1-2 10 4 2 1-2-4-1-11-9-3 1-3 4-1-1-2 6-15-1-4-4-3-6-1-5 1v2l-3-1-3-8v-12l4-7 7-6 4-2h4l2 6 4 3 9 2 1-6-1-5z" fill="#FEFEFE"/>
<path transform="translate(123,249)" d="m0 0h15l6 3 5 6 1 4v32l-14 3-14-1-8-5-2-3v-11l3-5 5-3 4-1h16l-3-8-1-1h-11l-7 2-4-6 1-3z" fill="#293477"/>
<path transform="translate(215,249)" d="m0 0h14l8 4 4 8 1 14v13l-2 6-5 2-7 1h-9l-10-3-6-7v-9l3-5 6-4 3-1h16l-2-8-2-1h-11l-8 1-2-4 1-4z" fill="#293477"/>
<path transform="translate(78,231)" d="m0 0h11l10 3 4 3-2 5-2 3-11-3h-9l-6 4-2 4v27l3 6 4 2h13l7-3 4 1 3 5-2 4-10 4h-17l-10-5-4-5-3-9v-25l2-9 4-6 9-5z" fill="#293477"/>
<path transform="translate(103,338)" d="m0 0 12 1 10 5-1 5-3 3-5-1-8-2-9 1-5 5-1 3v26l3 6 7 3 11-1 5-2 5 1 3 4v3l-11 5-5 1h-9l-10-3-7-6-3-7-1-5v-22l2-10 4-6 7-5z" fill="#293477"/>
<path transform="translate(1586,118)" d="m0 0h10l5 3 3 4 1 3v27l-2 5-4 4-4 1h-9l-5-3-3-3-1-3-1-23 2-9 5-5z" fill="#FEFEFE"/>
<path transform="translate(1181,118)" d="m0 0h11l5 3 3 3 1 3v28l-3 6-3 3-3 1h-10l-6-3-3-5v-31l6-7z" fill="#FEFEFE"/>
<path transform="translate(1720,117)" d="m0 0 10 1 4 2v44l-3 1h-15l-6-5-2-5v-28l3-6 5-3z" fill="#FEFEFE"/>
<path transform="translate(170,249)" d="m0 0h15l9 4-2 5-1 2-8-1h-11l-2 2 1 4 10 3 9 3 5 6 1 7-3 7-5 4-8 2-12-1-10-5 2-5 2-3 6 2 7 2 8-1 2-6-11-3-10-4-4-5-1-2v-7l4-6z" fill="#293477"/>
<path transform="translate(153,357)" d="m0 0h11l8 25 3 8 3-8 8-24 1-1h10l-4 13-11 31-2 2h-10l-3-5-14-39z" fill="#293477"/>
<path transform="translate(548,500)" d="m0 0 1 3-7 12 6 2 4 3-8 10-9 10-2 3-18 5h-2l2-16 3-5 15-14 9-8z" fill="#FEFEFE"/>
<path transform="translate(695,299)" d="m0 0 3 1 13 22 1 4-20 9-5-1-8-10-4-7 1-4 16-12z" fill="#FEFEFE"/>
<path transform="translate(731,502)" d="m0 0 4 2 11 10 16 14 4 14v6l-17-4-8-7-13-16v-2l6-3h3l-3-7-3-5z" fill="#FEFEFE"/>
<path transform="translate(645,262)" d="m0 0h19l-6 8-1 2 9-4h2l-3 9-4 10-9-4 1 2v8h-18v-3l6-7-10 4 2-9 4-10 5 2 4 2-1-3z" fill="#293477"/>
<path transform="translate(225,339)" d="m0 0h9l1 1 1 50 1 4 8 1v9h-9l-6-3-4-5-1-4z" fill="#293477"/>
<path transform="translate(608,322)" d="m0 0 14 7 14 5-2 9-7 13-4 4-7-6-7-10-7-14v-3z" fill="#FEFEFE"/>
<path transform="translate(1273,337)" d="m0 0 18 1 1 2v17l-1 2-6 1h-16l-6-3-4-5v-8l6-5z" fill="#FEFEFE"/>
<path transform="translate(676,326)" d="m0 0 3 1 7 9-1 3-12 7-17 12-3-1-5-7-1-5 18-10z" fill="#FEFEFE"/>
<path transform="translate(211,356)" d="m0 0h3l1 4v39l-1 4h-8l-2-3v-41l1-2z" fill="#293477"/>
<path transform="translate(136,357)" d="m0 0h9l1 3v36l-1 7h-8l-2-1v-44z" fill="#293477"/>
<path transform="translate(1352,116)" d="m0 0h7l6 3 3 4 1 10h-27l1-10 5-5z" fill="#FEFEFE"/>
<path transform="translate(1813,116)" d="m0 0h8l6 3 3 5 1 8-1 1h-26v-8l4-6z" fill="#FEFEFE"/>
<path transform="translate(639,335)" d="m0 0 3 1 4 13 5 8v4l-5 2h-12l-6-2 1-5 7-14z" fill="#FEFEFE"/>
<path transform="translate(582,323)" d="m0 0 4 1 3 3-4 8-10 26-4 4-4-4 6-17 8-19z" fill="#FEFEFE"/>
<path transform="translate(671,317)" d="m0 0h2l3 6v2l-6 4-11 8-10 5h-3l-2-8 18-10z" fill="#FEFEFE"/>
<path transform="translate(637,514)" d="m0 0 7 1 3 4v12l-2 1h-8l-5-3-1-2v-8l3-4z" fill="#293477"/>
<path transform="translate(801,440)" d="m0 0 7 1 4 6-1 7-4 3-6 1-6-5-1-7 4-5z" fill="#293477"/>
<path transform="translate(509,474)" d="m0 0 4 2 10 8 8 6v2l-4-1-3-2h-3l1 3 5 4v2l-4-1-6-4 1 5 5 3v3l-5-2-6-4 2-5 5-8-5-3-8 10-2-1 2-4 5-8-2-2z" fill="#293477"/>
<path transform="translate(789,407)" d="m0 0 7 1 3 3-1 7-6 5h-6l-3-3v-7z" fill="#FEFEFE"/>
<path transform="translate(126,276)" d="m0 0h13l1 1v9l-5 2h-8l-4-2-1-7z" fill="#FEFEFE"/>
<path transform="translate(217,276)" d="m0 0h13l1 1v9l-4 2h-9l-5-5 1-5z" fill="#FEFEFE"/>
<path transform="translate(476,440)" d="m0 0 4 2 4 5-1 7-2 1h-6v5h-3v-9h-3l-4 1v-3l9-7z" fill="#293477"/>
<path transform="translate(787,453)" d="m0 0h7l3 8h5l-1 3h-8l-2 2 3 3-1 3-7-6-5-5 2-4z" fill="#293477"/>
<path transform="translate(573,501)" d="m0 0 10 3 2 6-3 5h-7l-4-2-1 5-2-1 1-5z" fill="#293477"/>
<path transform="translate(698,505)" d="m0 0 3 1 4 16h-3l-3-10-2 3-2 4-6-4 1 11-3-1-4-15 4-1 7 5 2-7z" fill="#293477"/>
<path transform="translate(673,511)" d="m0 0 4 2 8 12v2l-4-1v-2l-9 2-2 4h-2l1-9 3-9z" fill="#293477"/>
<path transform="translate(760,476)" d="m0 0 5 1 11 6 1 3-7 1-4 4-1 4h-2l-4-17z" fill="#293477"/>
<path transform="translate(800,443)" d="m0 0 7 1 2 3v5l-3 3h-6l-3-3v-7z" fill="#FEFEFE"/>
<path transform="translate(497,464)" d="m0 0h3l-2 4-5 5 1 5 4 1 8-8 3 3-5 5-6 4-5-1-4-5 1-6 5-6z" fill="#293477"/>
<path transform="translate(489,398)" d="m0 0 5 1 6 5-1 5-7 1-5-4-1-4z" fill="#FEFEFE"/>
<path transform="translate(661,513)" d="m0 0 3 1 1 5v7l-5 5h-6l-3-3-2-13 3-1 2 12 1 1h5l1-1z" fill="#293477"/>
<path transform="translate(599,510)" d="m0 0h3v14h6l3-12h3l-2 12-3 4h-7l-4-4v-9z" fill="#293477"/>
<path transform="translate(777,462)" d="m0 0 4 2 5 6 1 7-4 4h-7l-8-8v-3l4 2 7 6 4-1-1-6-5-6z" fill="#293477"/>
<path transform="translate(505,418)" d="m0 0 3 1 4 7-1 6-5 1-5-5 2-7z" fill="#FEFEFE"/>
<path transform="translate(618,513)" d="m0 0h7l3 2v2l-8-1v3l8 4 1 3-5 5-7-1-2-2 1-3 3 2h5v-3l-8-4v-5z" fill="#293477"/>
<path transform="translate(636,517)" d="m0 0 7 1 1 2v7l-2 2h-6l-2-2-1-5z" fill="#FEFEFE"/>
<path transform="translate(207,339)" d="m0 0h6l2 2v7l-3 2h-5l-3-3v-5z" fill="#293477"/>
<path transform="translate(705,480)" d="m0 0 4 1 5 5-8 5h-4l-3-4v-3z" fill="#FEFEFE"/>
<path transform="translate(138,339)" d="m0 0h6l2 3v5l-3 3h-5l-3-3 1-7z" fill="#293477"/>
<path transform="translate(463,421)" d="m0 0h2l-1 5-5 8 9-2h5l-1 3-13 3-5-1 2-6z" fill="#293477"/>
<path transform="translate(572,480)" d="m0 0 6 4 2 3-3 4-6-1-5-3 2-4z" fill="#FEFEFE"/>
<path transform="translate(497,410)" d="m0 0 5 1 2 3-1 5-2 2h-5l-3-6v-3z" fill="#FEFEFE"/>
<path transform="translate(466,276)" d="m0 0 5 2 1 8-2 3-5-2-2-2v-6z" fill="#FEFEFE"/>
<path transform="translate(460,298)" d="m0 0h5l1 3-3 6-4 2-4-4 1-4z" fill="#FEFEFE"/>
<path transform="translate(486,452)" d="m0 0 4 1 7 8-1 2-3-1v-2l-5 3-3 3h-2v2l-3 1v-4l8-7z" fill="#293477"/>
<path transform="translate(552,521)" d="m0 0 6 1-1 5-2 5-5-1-3-1 1-4z" fill="#FEFEFE"/>
<path transform="translate(588,507)" d="m0 0 3 1-3 13 7 2v3l-9-2-3-3 4-13z" fill="#293477"/>
<path transform="translate(490,412)" d="m0 0h2l2 7 1 3h-7l-3-3 1-4z" fill="#FEFEFE"/>
<path transform="translate(725,520)" d="m0 0 5 5 1 4-6 2-3-6 1-4z" fill="#FEFEFE"/>
<path transform="translate(575,505)" d="m0 0 5 1 2 1v5l-5 1-4-3z" fill="#FEFEFE"/>
<path transform="translate(789,455)" d="m0 0 4 1-1 5-2 2-4-1-1-4z" fill="#FEFEFE"/>
<path transform="translate(473,436)" d="m0 0h3l-2 4-9 7-4-1 4-4z" fill="#293477"/>
<path transform="translate(476,444)" d="m0 0 4 2 1 6h-5l-3-5z" fill="#FEFEFE"/>
<path transform="translate(582,308)" d="m0 0 8 1 3 1v2l-8 2h-4v-2l3-1-2-1z" fill="#FEFEFE"/>
<path transform="translate(585,314)" d="m0 0h8v3l-10 2-2-3z" fill="#FEFEFE"/>
<path transform="translate(763,480)" d="m0 0 6 2v3l-5 2z" fill="#FEFEFE"/>
<path transform="translate(674,515)" d="m0 0 4 4 1 3-6 1v-6z" fill="#FEFEFE"/>
</svg>
